<svg width="50" height="57" viewBox="0 0 50 57" fill="none" xmlns="http://www.w3.org/2000/svg">
<path d="M49.8984 17.2312C46.6133 10.3436 39.8041 6.03127 33.7116 5.85159C35.0854 4.41416 36.7578 3.09652 38.6692 1.95856C39.5054 1.47941 39.2068 0.281557 38.2511 0.161772C33.3532 -0.197585 28.5151 1.29974 25.23 4.23448C21.4072 1.17995 15.7926 -0.556942 10.1183 0.161772C9.16258 0.281557 8.98339 1.65909 9.93907 2.01845C12.3283 2.91684 14.5383 4.17459 16.3899 5.7318C10.178 5.85159 3.30904 10.4034 0.0836197 17.4708C-0.27476 18.3093 0.62119 19.1478 1.39768 18.6687C5.39959 16.4526 9.81961 14.8355 13.5826 14.536C8.86393 17.5906 6.415 23.8194 7.07203 30.0483C7.19149 31.0066 8.44582 31.2461 8.86393 30.4076C12.1491 24.1788 16.6288 20.8248 21.1086 20.705C22.8408 37.2354 19.7945 51.0707 18.6597 55.5027C18.4805 56.2813 19.018 57.0001 19.7945 57.0001H29.8292C30.4862 57.0001 30.964 56.5209 31.0238 55.8621C31.0835 55.0236 31.0835 53.8257 31.1432 52.2086L27.3802 51.7894C27.0816 51.7295 27.0816 51.0707 27.3802 51.0707L31.203 50.6514C31.203 48.675 31.203 46.2792 31.0835 43.5841L27.201 43.1648C26.9024 43.1049 26.9024 42.4461 27.201 42.4461L31.0238 42.0269C30.964 39.8707 30.7848 37.475 30.6057 35.0194L26.6037 34.5402C26.3051 34.4804 26.3051 33.8215 26.6037 33.8215L30.4862 33.4023C30.307 31.1264 30.0681 28.7306 29.7097 26.3349L26.1856 25.736C25.887 25.736 25.887 25.0173 26.1856 25.0173L29.4708 24.6579C29.2916 23.2804 29.0527 21.9029 28.8735 20.5253C33.5324 21.1243 37.7733 24.5382 40.5208 30.8868C40.8792 31.7253 42.1335 31.5456 42.3127 30.6472C43.6268 23.7595 41.3571 17.4109 36.5787 14.3564C39.8638 14.6558 43.9254 16.1532 48.6441 18.5489C49.4206 18.9082 50.3166 18.0697 49.8984 17.2312Z" fill="#264B1D"/>
</svg>
